<svg xmlns="http://www.w3.org/2000/svg" fill="currentColor" viewBox="0 0 206 55"><path d="m108.1 11.3-.6 1-21.2 34.4Q85 49 83.9 51.5l-.3.8q0 .8.3 1.3.6.3 1.4 0 1.6-.8 2.5-2 3-4 6-8.4 3.7-5.8 9.8-9.1 1.5-.7 3-1 2.1-.4 2 1.7v.9l1.2-1.9q.3-.6 1-.6h3.8l-.5 1-6.3 10q-1.9 3.3-3.3 6.7l-.5 2q0 1.4 1.2.8 1.5-.7 2.6-1.8 2.5-2.6 4.5-5.4 4.5-6.2 8.8-12.6.5-.7 1.4-.7h3.5l-5 7.8v.1l1.7-1.8 5.3-5q1-.7 2.4-1 2.5-.5 2.8 2.2a7 7 0 0 1-1 4.2l-3.7 5.4-3.6 5q-.7 1.2-1 2.6 0 1.6 1.5 1 1.4-.4 2.4-1.5 2.5-2.5 4.5-5.4 5-7.7 9.7-15.6l.3-.5h-8.7q1.3-1.3 3-1.3l5.7-.1q1 0 1.4-.8l5.5-9q.6-1.2 2-1h3.4L148 29.3c5.3-.4 10.6 1 15.3-2l.2.2-1 1.1a9 9 0 0 1-5 1.7q-4.6.2-9.3.2-1 0-1.4.8-4.9 7.7-9.6 15.6-1.4 2.3-2.3 5c-.2.5 0 1.5.2 1.7.4.2 1.3.1 1.8-.1q1.3-.7 2.3-1.8 2.3-2.6 4.4-5.6 4-6 7.6-12.2.4-.7 1.2-.7h4l-.6 1-7.8 12.6-2.5 5v1.9q1 0 2-.3a22 22 0 0 0 6.3-6.3l9.3-13.2q.4-.7 1.4-.7h3.4l-5 8 1.4-1.5 5.7-5.4q.8-.7 2-1 3-.6 3.2 2.4 0 2-1 4-1.8 2.9-3.9 5.6l-3.5 4.8a7 7 0 0 0-1 2.4q-.1 1.7 1.5 1.3 1.5-.7 2.6-1.7a28 28 0 0 0 6-7.9q3-6 8.7-9.8a8 8 0 0 1 4-1.3q2.3 0 2.8 2.2.6 3-1.6 5.3-3.1 3.1-7.4 3.8-2.3.3-3.1 2.3l-1.8 4.5q-.7 3 2.4 2.5 3.8-1 6.7-3.7.2-.1.3-.6.6-1.6 1.4-3 .9-.9 2.2-1 .9-.2 1.3-.8c3.7-5 7.5-9.7 10.1-15.3q.6-1.2 1.6-2 .7-.4 1.3-.1c.6.3.4.8.3 1.2a5 5 0 0 1-2 3.2q-2.5 2-2 5.3.7 3 .6 6.4c0 5-3.8 10-8.6 11.3l-1.5.3c-2.7.3-4-.7-4.8-3.7q-1.2 1-2.5 1.6-2.3 1.3-4.8 2c-2.7.7-4.8-1.1-5-3.9v-2.4l-2.2 2.6-3.4 3-1 .6c-2.6.9-4.4-.4-4.6-3q-.1-2.5 1-4.6l3-4.3 4-5.5.8-1.7q.2-1.3-1-.8a6 6 0 0 0-2 1.3q-3.7 4.1-7.3 8.5-3.6 4.6-6.8 9.5-.4.7-1.2.7h-3.9l3.7-5.6-3.2 3.2a9 9 0 0 1-4 2.5c-1.7.3-3-.4-3.1-2v-4.2l-3.6 3.9q-1.5 1.7-3.8 2.2-3 .7-3.4-2.2-.2-2.2 0-3.9l-3.5 3.8q-1 1-2.4 1.8c-2.4 1.4-5 .7-5.2-2.9q0-2.4 1.2-4.5l3-4.3 3.9-5.3q.5-.8.7-1.7.2-1.2-.9-.8-.8.3-1.5.9-4.5 4-8 8.9l-6.6 9.5q-.6.7-1.4.7H108l3-4.6-.8.6q-1.6 1.8-3.5 3.3c-2.2 1.6-4.2.9-4.8-1.7l-.4-3.3-1.3 1.7q-1.7 2-3.5 3.4c-1.9 1.4-3.7.9-4.4-1.3q-.6-2.1-.8-4.2l-.3.4q-1.7 2.3-3.5 4.2-1.3 1.1-3 1.6c-1.4.4-2.7-.4-3-2l-.2-4-2.8 3.1a14 14 0 0 1-2.9 2.4c-2.4 1.4-4.5.2-4.6-2.6l.1-3-.5.6q-1.4 1.8-3 3.5-.8 1-2 1.6-2.7 1.4-4-1.4l-.5-2-.1-2q-1.5 2-3.3 3.9-1 1-2.3 1.7-2.2 1-3.5-1.1c-1.2-2.2-1-4.4-.3-6.6q1.7-4.7 5.2-8.2 2.8-3 6.4-4.7l3-1q2-.4 2 1.8v.9l1.2-2q.3-.5.7-.5h4.2l-.5.9-6.3 10-3.3 6.8q-.4 1-.5 2 .1 1.3 1 .9 1.6-.9 2.7-2a45 45 0 0 0 3.8-5.1l21.3-34.5q.6-1 1.7-1H98l-.6 1-21.2 34.4q-1.5 2.6-2.5 5.2-.2 1 0 1.9 1.2 0 2-.3 1.1-.6 1.9-1.6l3.8-5L102.9 12q.5-1 1.5-.8zM181 43.6q2.8.1 4.3-1.9 2-2.7 3.6-5.8.1-.6 0-1.6-.8.2-1.5.6c-2.8 2.4-4.5 5.6-6.4 8.7m18.3-7.7-.5.7-6 8.2q-.8.8-1 2.2 0 .9-.7 1.6l-2.6 1.7-.6.5 1 2.6q1 .9 2 .3a10 10 0 0 0 2.5-2q2.8-3.5 4.2-7.8 1.6-3.9 1.7-8m-105 16.6q0 1.8 1.3 1.2 1.5-.9 2.6-2a62 62 0 0 0 9.4-16.3l-.1-1q-.6-.2-1.2 0-1.2.9-2.2 2-5.9 6.2-9.1 14zm-40.3.3q0 1.6 1.3 1 1.6-1 2.9-2.5 5.1-6.4 8.5-13.8l.7-2.3q0-.5-.2-.8-.4-.3-1 0-1.3.8-2.3 1.9-6 6.3-9.3 14.5zm8.6-51.4-5 2.5.7.8a12.4 12.4 0 0 1-.9 17q-2.7 2.7-6.4 4.2l-1.2.5q2.6 3 2.7 6.7 0 3-.7 5.8a22 22 0 0 1-11.5 14.7 11 11 0 0 1-7.6 1.2q-3.1-1-3.6-4.1-.2-4.2 2.6-7.2 3.3-3.6 8.1-4.9l1.7-.2v.4l-1 .4q-3 .7-5.4 2.6-3.9 3-4.6 8v1q.7 3.6 4 2.5 2-.8 3.4-2a34 34 0 0 0 10.3-19q.3-2.6.3-5l-4 .2q-1.7-.1-1.8-1.5 0-1.3 1.7-1.8 2.5-.5 4.4 1.2c5.6-2.8 10.6-16 7.6-20.3l-.8.7q-4.8 4.4-8.6 9.7-5.7 7.8-10.4 16.3c-3.4 6.2-7.4 12-12.9 16.8-3.3 3-7.1 5.3-11.6 6-3 .5-5.8.6-8.6-.6Q.1 52.5 0 48.8q.1-3.7 3.7-5.4l.5-.1.5.1q0 .3-.2.5l-.4.2a5 5 0 0 0-2.4 6q.9 2.8 4.5 3.2 6 .6 10.2-3.5a68 68 0 0 0 6.5-7.5q4.5-6.2 8.5-12.6A90 90 0 0 1 48.2 9.6q3.5-2.9 7.3-5.7l-1.7-1A17 17 0 0 0 43.7 1a45 45 0 0 0-29.5 15.4 26 26 0 0 0-5 8.1q-.7 2.2-1 4.5c-.3 4.3 3.4 6.8 7.4 6q4.4-.8 7.5-3.8l2.9-2.7.8-.2v.8c-3.2 3.7-6.9 6.8-12.1 7.1-5.9.4-9.8-3.9-9-9.6Q7 20.1 11.5 15c4.8-5.7 11-9.3 18-11.8Q37.1.3 45.3 0c4 0 8 .7 11.3 3.3L61.2 1h1.3zm-15 24.8.1-.3q-1.2-1.2-3-.8l-.8.7q.4.6 1 .8 1.3 0 2.8-.4m147.9 2q-2.5-.2-2.5-1.6c0-1.1 1.1-2.4 2.5-2.7q1.5-.5 2.6.4t.6 2.3q-1.3 3.4-5.2 4.6h-.9c1-1 2.4-1.6 2.9-3M157.5 23c0-1.5 1.5-3 3-2.9a2 2 0 0 1 2 2c0 1.5-1.5 3-3 3a2 2 0 0 1-2-2"/></svg>